<!--?xml version="1.0" encoding="utf-8"?-->
<!-- Generator: Adobe Illustrator 18.1.1, SVG Export Plug-In . SVG Version: 6.00 Build 0)  -->

<svg version="1.1" id="_x32_" xmlns="http://www.w3.org/2000/svg" xmlns:xlink="http://www.w3.org/1999/xlink" x="0px" y="0px" viewBox="0 0 512 512" style="width: 256px; height: 256px; opacity: 1;" xml:space="preserve">
<style type="text/css">
	.st0{fill:#4B4B4B;}
</style>
<g>
	<path class="st0" d="M405.076,56.585h-40.646v25.882c0,3.113-0.342,6.155-0.96,9.094h45.958c5.091,0,9.22,4.13,9.22,9.22v356.46
		c0,5.091-4.13,9.22-9.22,9.22H102.572c-5.091,0-9.22-4.13-9.22-9.22v-356.46c0-5.091,4.13-9.22,9.22-9.22h45.96
		c-0.62-2.938-0.961-5.981-0.961-9.094V56.585h-40.646c-25.462,0-46.102,20.641-46.102,46.103v363.21
		c0,25.461,20.641,46.102,46.102,46.102h298.151c25.461,0,46.102-20.641,46.102-46.102v-363.21
		C451.178,77.226,430.537,56.585,405.076,56.585z" style="fill: rgb(75, 75, 75);"></path>
	<path class="st0" d="M191.497,110.129h129.007c15.28,0,27.661-12.382,27.661-27.662v-3.177V57.943v-3.176
		c0-15.28-12.381-27.662-27.661-27.662h-34.96C284.153,11.929,271.534,0,256,0c-15.542,0-28.162,11.929-29.552,27.105h-34.951
		c-15.28,0-27.662,12.382-27.662,27.662v3.176v21.348v3.177C163.835,97.748,176.217,110.129,191.497,110.129z M256,16.265
		c7.481,0,13.549,6.068,13.549,13.548c0,7.489-6.068,13.557-13.549,13.557c-7.489,0-13.557-6.068-13.557-13.557
		C242.443,22.332,248.511,16.265,256,16.265z" style="fill: rgb(75, 75, 75);"></path>
</g>
</svg>
